<svg width="37" height="42" viewBox="0 0 37 42" fill="none" xmlns="http://www.w3.org/2000/svg">
<path d="M10.9375 0C8.55137 0 6.62955 1.84876 6.35579 4.16667H3.64583C1.65109 4.16667 0 5.81776 0 7.8125V14.0625C0 17.7833 3.05006 20.8333 6.77083 20.8333H6.98853C8.39143 25.1274 12.0827 28.2198 16.6667 28.8493V32.2917H13.0208C9.30006 32.2917 6.25 35.3417 6.25 39.0625V40.1042C6.25004 40.5186 6.41467 40.916 6.70769 41.209C7.00071 41.502 7.39811 41.6666 7.8125 41.6667H28.6458C29.0602 41.6666 29.4576 41.502 29.7506 41.209C30.0437 40.916 30.2083 40.5186 30.2083 40.1042V39.0625C30.2083 35.3417 27.1583 32.2917 23.4375 32.2917H19.7917V28.8493C24.3756 28.2198 28.0669 25.1274 29.4698 20.8333H29.6875C33.4083 20.8333 36.4583 17.7833 36.4583 14.0625V7.8125C36.4583 5.81776 34.8072 4.16667 32.8125 4.16667H30.1025C29.8288 1.84876 27.907 0 25.5208 0H10.9375ZM10.9375 3.125H25.5208C26.4026 3.125 27.0833 3.80573 27.0833 4.6875V5.47282C27.0558 5.64056 27.0558 5.81167 27.0833 5.97941V17.1875C27.0833 22.0644 23.1831 25.9727 18.3187 26.0234C18.2591 26.0199 18.1993 26.0199 18.1396 26.0234C13.2753 25.9727 9.375 22.0644 9.375 17.1875V5.98551C9.40255 5.81777 9.40255 5.64666 9.375 5.47892V4.6875C9.375 3.80573 10.0557 3.125 10.9375 3.125ZM3.64583 7.29167H6.25V17.1875C6.25 17.3417 6.33166 17.4701 6.33748 17.6229C4.52527 17.4027 3.125 15.9396 3.125 14.0625V7.8125C3.125 7.50516 3.33849 7.29167 3.64583 7.29167ZM30.2083 7.29167H32.8125C33.1198 7.29167 33.3333 7.50516 33.3333 7.8125V14.0625C33.3333 15.9396 31.9331 17.4027 30.1208 17.6229C30.1267 17.4701 30.2083 17.3417 30.2083 17.1875V7.29167ZM13.0208 35.4167H23.4375C25.2834 35.4167 26.7208 36.774 26.9796 38.5417H9.47876C9.73756 36.774 11.175 35.4167 13.0208 35.4167Z" fill="#2980BA"/>
</svg>
