<svg fill="#000000" xmlns="http://www.w3.org/2000/svg"  viewBox="0 0 48 48" width="50px" height="50px"><path d="M 33.998047 6 C 31.790047 6 30 7.7920469 30 9.9980469 C 30 12.208047 31.790047 14 33.998047 14 C 36.211047 14 38 12.208047 38 9.9980469 C 38 7.7920469 36.211047 6 33.998047 6 z M 17.435547 13 C 16.397353 13 15.412236 13.462739 14.748047 14.259766 L 10.347656 19.539062 A 1.5004328 1.5004328 0 1 0 12.652344 21.460938 L 16.998047 16.244141 L 22.611328 16.931641 L 17.804688 23.617188 C 17.306472 24.284089 17 25.102489 17 25.998047 C 17 27.458138 17.790049 28.722923 18.957031 29.421875 L 18.955078 29.425781 L 19.033203 29.462891 C 19.214748 29.566344 19.399776 29.659998 19.597656 29.734375 L 27.738281 33.638672 L 29.03125 42.878906 L 29.042969 42.871094 A 1.50015 1.50015 0 0 0 32 42.5 L 32 31.5 A 1.50015 1.50015 0 0 0 31.287109 30.224609 L 28.757812 28.664062 L 25.431641 26.564453 L 29.414062 20.832031 L 31.330078 23.441406 L 31.333984 23.439453 A 1.50015 1.50015 0 0 0 32.5 24 L 39.5 24 A 1.50015 1.50015 0 1 0 39.5 21 L 33.435547 21 L 30.712891 15.457031 A 1.50015 1.50015 0 0 0 30.654297 15.347656 C 30.620523 15.291067 30.582565 15.239814 30.546875 15.185547 C 29.884155 13.893987 28.5531 13 26.998047 13 C 26.871095 13 26.75088 13.025523 26.626953 13.037109 C 26.184399 12.999733 25.777037 13 25.427734 13 L 17.435547 13 z M 17.246094 30.814453 L 16.201172 33.974609 L 8.3789062 35.003906 A 1.50015 1.50015 0 0 0 8.5 38 L 17.5 38 A 1.50015 1.50015 0 0 0 18.648438 37.486328 A 1.50015 1.50015 0 0 0 18.908203 37.070312 A 1.50015 1.50015 0 0 0 18.912109 37.0625 L 21.53125 32.871094 C 20.35925 32.393094 18.403094 31.404453 17.246094 30.814453 z"/></svg>