<svg fill="#000000" xmlns="http://www.w3.org/2000/svg"  viewBox="0 0 50 50" width="50px" height="50px"><path d="M 25.96875 1 C 23.792719 1 22.030878 2.3049238 21.978516 3.9277344 L 21.1875 4.0332031 L 21.132812 4.046875 C 19.875128 4.364101 18.802408 5.068928 18.056641 6 L 8 6 L 8 4 L 6 4 L 6 14 L 8 14 L 8 12 L 9.34375 12 L 18.056641 32.037109 C 18.607264 33.30346 18.628272 34.736944 18.115234 36.019531 L 13.082031 47.601562 A 1.0007097 1.0007097 0 1 0 14.917969 48.398438 L 19.960938 36.789062 A 1.0001 1.0001 0 0 0 19.972656 36.761719 C 20.683621 34.984306 20.654 32.995884 19.890625 31.240234 L 11.525391 12 L 14.416016 12 L 22.244141 25.919922 C 22.914689 27.112267 23.912887 28.086669 25.119141 28.730469 L 34.753906 33.869141 C 36.888649 35.007848 38.410572 37.028758 38.917969 39.394531 A 1.0001 1.0001 0 0 0 38.923828 39.416016 L 41.027344 48.232422 A 1.0001 1.0001 0 1 0 42.972656 47.767578 L 40.869141 38.951172 L 40.873047 38.974609 C 40.242444 36.034382 38.348571 33.520761 35.695312 32.105469 L 26.060547 26.966797 C 25.190801 26.502597 24.471733 25.799108 23.988281 24.939453 L 16.708984 12 L 18.056641 12 C 18.802419 12.931032 19.875166 13.635909 21.132812 13.953125 L 21.189453 13.966797 L 21.978516 14.072266 C 22.030878 15.695076 23.792719 17 25.96875 17 L 25.96875 14.605469 L 30 15.142578 L 30 2.8574219 L 25.96875 3.3945312 L 25.96875 1 z M 28 5.1425781 L 28 12.857422 L 21.609375 12.005859 C 20.120358 11.62395 19.152661 10.544095 19 9.3320312 L 19 8.6679688 C 19.1524 7.4556789 20.118487 6.3760333 21.607422 5.9941406 L 28 5.1425781 z M 8 8 L 17 8 L 17 8.6640625 C 16.991789 8.7766365 16.96875 8.8856259 16.96875 9 C 16.96875 9.1143916 16.991789 9.2233491 17 9.3359375 L 17 10 L 15.148438 10 A 1.0001 1.0001 0 0 0 14.964844 9.9882812 A 1.0001 1.0001 0 0 0 14.84375 10 L 10.15625 10 A 1.0001 1.0001 0 0 0 9.96875 9.9863281 A 1.0001 1.0001 0 0 0 9.8359375 10 L 8 10 L 8 8 z M 35.5 17 C 31.921992 17 29 19.921995 29 23.5 C 29 27.078005 31.921992 30 35.5 30 C 39.078008 30 42 27.078005 42 23.5 C 42 19.921995 39.078008 17 35.5 17 z M 35.5 19 C 37.997128 19 40 21.002873 40 23.5 C 40 25.997127 37.997128 28 35.5 28 C 33.002872 28 31 25.997127 31 23.5 C 31 21.002873 33.002872 19 35.5 19 z M 33.992188 40 A 1.0001 1.0001 0 0 0 33.080078 40.605469 L 30.080078 47.605469 A 1.0009551 1.0009551 0 1 0 31.919922 48.394531 L 33.8125 43.980469 L 35.039062 48.275391 A 1.0001 1.0001 0 1 0 36.960938 47.724609 L 34.960938 40.724609 A 1.0001 1.0001 0 0 0 33.992188 40 z"/></svg>