<svg width="50" height="50" viewBox="0 0 50 50" fill="none" xmlns="http://www.w3.org/2000/svg">
<path d="M10.9375 6.25C8.36719 6.25 6.25 8.36719 6.25 10.9375V14.0625C6.25 16.6328 8.36719 18.75 10.9375 18.75H19.2708C21.8411 18.75 23.9583 16.6328 23.9583 14.0625V10.9375C23.9583 8.36719 21.8411 6.25 19.2708 6.25H10.9375ZM30.7292 6.25C28.1589 6.25 26.0417 8.36719 26.0417 10.9375V24.4792C26.0417 27.0495 28.1589 29.1667 30.7292 29.1667H39.0625C41.6328 29.1667 43.75 27.0495 43.75 24.4792V10.9375C43.75 8.36719 41.6328 6.25 39.0625 6.25H30.7292ZM10.9375 9.375H19.2708C20.1526 9.375 20.8333 10.0557 20.8333 10.9375V14.0625C20.8333 14.9443 20.1526 15.625 19.2708 15.625H10.9375C10.0557 15.625 9.375 14.9443 9.375 14.0625V10.9375C9.375 10.0557 10.0557 9.375 10.9375 9.375ZM30.7292 9.375H39.0625C39.9443 9.375 40.625 10.0557 40.625 10.9375V24.4792C40.625 25.3609 39.9443 26.0417 39.0625 26.0417H30.7292C29.8474 26.0417 29.1667 25.3609 29.1667 24.4792V10.9375C29.1667 10.0557 29.8474 9.375 30.7292 9.375ZM10.9375 20.8333C8.36719 20.8333 6.25 22.9505 6.25 25.5208V39.0625C6.25 41.6328 8.36719 43.75 10.9375 43.75H19.2708C21.8411 43.75 23.9583 41.6328 23.9583 39.0625V25.5208C23.9583 22.9505 21.8411 20.8333 19.2708 20.8333H10.9375ZM10.9375 23.9583H19.2708C20.1526 23.9583 20.8333 24.6391 20.8333 25.5208V39.0625C20.8333 39.9443 20.1526 40.625 19.2708 40.625H10.9375C10.0557 40.625 9.375 39.9443 9.375 39.0625V25.5208C9.375 24.6391 10.0557 23.9583 10.9375 23.9583ZM30.7292 31.25C28.1589 31.25 26.0417 33.3672 26.0417 35.9375V39.0625C26.0417 41.6328 28.1589 43.75 30.7292 43.75H39.0625C41.6328 43.75 43.75 41.6328 43.75 39.0625V35.9375C43.75 33.3672 41.6328 31.25 39.0625 31.25H30.7292ZM30.7292 34.375H39.0625C39.9443 34.375 40.625 35.0557 40.625 35.9375V39.0625C40.625 39.9443 39.9443 40.625 39.0625 40.625H30.7292C29.8474 40.625 29.1667 39.9443 29.1667 39.0625V35.9375C29.1667 35.0557 29.8474 34.375 30.7292 34.375Z" fill="#F7F7F7"/>
</svg>
