<svg width="50" height="50" viewBox="0 0 50 50" fill="none" xmlns="http://www.w3.org/2000/svg">
<path d="M5.02899 42.7312L5.02893 42.7314C4.94052 43.0421 4.9367 43.3707 5.01787 43.6832C5.09904 43.9958 5.26224 44.281 5.4906 44.5094C5.71896 44.7378 6.00419 44.901 6.31677 44.9821C6.62936 45.0633 6.95795 45.0595 7.26856 44.9711L7.26876 44.971L18.0923 41.8806L18.1545 41.8629L18.1575 41.8599C18.7663 41.6739 19.3235 41.3429 19.7772 40.8893L19.6004 40.7125L19.7772 40.8893L42.8322 17.8322C45.7643 14.9001 45.7644 10.1 42.8323 7.16783C41.3664 5.70125 39.4324 4.96851 37.5 4.96851C35.5676 4.96851 33.6337 5.70125 32.1678 7.16783L9.11076 30.2228L9.28753 30.3996L9.11075 30.2228C8.64323 30.6903 8.30087 31.2716 8.11933 31.91L5.02899 42.7312ZM40.2671 9.73077L40.3403 9.80397H40.3406C41.8117 11.3503 41.7879 13.7505 40.2692 15.2692L38.4257 17.1127L32.8873 11.5743L34.7308 9.73081L34.7309 9.73077C35.5015 8.9598 36.5012 8.5752 37.5 8.5752C38.4987 8.5752 39.4964 8.95971 40.2671 9.73077ZM17.094 38.395L9.40939 40.5906L11.6051 32.9035L11.6107 32.8842C11.6235 32.8483 11.6438 32.8158 11.6738 32.7858L30.3243 14.1373L35.8627 19.6757L17.2128 38.3256C17.2126 38.3258 17.2125 38.3259 17.2123 38.326C17.1808 38.3573 17.1403 38.3817 17.094 38.395Z" fill="black" stroke="black" stroke-width="0.5"/>
</svg>
