<svg width="50" height="50" viewBox="0 0 50 50" fill="none" xmlns="http://www.w3.org/2000/svg">
<path d="M30.9906 6.12029C30.4939 6.10244 29.9902 6.15707 29.4922 6.2889C28.1641 6.64047 27.0702 7.49969 26.4061 8.67156L25 11.2106C24.6875 11.7575 24.8827 12.5003 25.4295 12.8128L32.1877 16.719C32.383 16.8362 32.5783 16.8747 32.7736 16.8747C32.8908 16.8747 32.9684 16.8748 33.0856 16.8358C33.3981 16.7577 33.6328 16.5622 33.7891 16.2887L35.2341 13.7497C35.8981 12.5778 36.0938 11.2112 35.7422 9.88311C35.3906 8.55499 34.5314 7.46108 33.3595 6.79702C32.6271 6.38198 31.8184 6.15005 30.9906 6.12029ZM23.4757 14.8933C23.0972 14.9223 22.7341 15.1268 22.5388 15.4686L10.7422 35.9375C9.41406 38.2031 8.67218 40.7423 8.51593 43.3205L8.20313 48.3597C8.16406 48.7894 8.39844 49.2186 8.78906 49.453C8.98438 49.5702 9.17969 49.6094 9.375 49.6094C9.60938 49.6094 9.84345 49.5312 10.0388 49.4141L14.2578 46.6408C16.4063 45.1955 18.2422 43.2812 19.5313 41.0156L31.3675 20.5467C31.68 19.9998 31.4841 19.2578 30.9372 18.9453C30.3903 18.6328 29.6483 18.828 29.3358 19.3748L17.5003 39.8437C16.3675 41.7578 14.8045 43.4376 12.9295 44.6876L10.6644 46.1716L10.82 43.4769C10.9372 41.2503 11.6014 39.0625 12.7342 37.1094L24.5705 16.6405C24.883 16.0936 24.6878 15.3516 24.1409 15.0391C23.9359 14.9219 23.7027 14.8759 23.4757 14.8933ZM19.1406 47.2656C18.4766 47.2656 17.9688 47.7734 17.9688 48.4375C17.9688 49.1016 18.4766 49.6094 19.1406 49.6094H34.7656C35.4297 49.6094 35.9375 49.1016 35.9375 48.4375C35.9375 47.7734 35.4297 47.2656 34.7656 47.2656H19.1406ZM40.625 47.2656C40.3142 47.2656 40.0161 47.3891 39.7964 47.6088C39.5766 47.8286 39.4531 48.1267 39.4531 48.4375C39.4531 48.7483 39.5766 49.0464 39.7964 49.2661C40.0161 49.4859 40.3142 49.6094 40.625 49.6094C40.9358 49.6094 41.2339 49.4859 41.4536 49.2661C41.6734 49.0464 41.7969 48.7483 41.7969 48.4375C41.7969 48.1267 41.6734 47.8286 41.4536 47.6088C41.2339 47.3891 40.9358 47.2656 40.625 47.2656Z" fill="#2980BA"/>
</svg>
