<svg fill="#000000" xmlns="http://www.w3.org/2000/svg"  viewBox="0 0 48 48" width="50px" height="50px"><path d="M 25.621094 5.9863281 A 1.50015 1.50015 0 0 0 24.589844 6.4394531 L 24.048828 6.9785156 A 1.50015 1.50015 0 0 0 23.714844 7.3144531 L 16.978516 14.048828 A 1.50015 1.50015 0 0 0 16.644531 14.382812 L 16.103516 14.923828 A 1.50015 1.50015 0 0 0 17.816406 17.341797 L 20.166016 19.691406 A 1.50015 1.50015 0 0 0 20.523438 20.046875 L 22.146484 21.671875 C 15.767128 27.09957 9.819035 32.245418 7.2304688 34.833984 C 5.6035378 36.460915 5.6035378 39.144553 7.2304688 40.771484 C 8.8573997 42.398415 11.541038 42.398415 13.167969 40.771484 C 15.749853 38.1896 20.913504 32.208857 26.324219 25.849609 L 27.945312 27.470703 A 1.50015 1.50015 0 0 0 28.302734 27.828125 L 30.658203 30.183594 A 1.50015 1.50015 0 0 0 33.076172 31.896484 L 33.623047 31.349609 A 1.50015 1.50015 0 0 0 33.947266 31.025391 L 40.681641 24.289062 A 1.50015 1.50015 0 0 0 41.025391 23.945312 L 41.560547 23.410156 A 1.50015 1.50015 0 0 0 39.849609 20.992188 L 37.490234 18.632812 A 1.50015 1.50015 0 0 0 37.148438 18.291016 L 29.712891 10.855469 A 1.50015 1.50015 0 0 0 29.369141 10.511719 L 27.007812 8.1503906 A 1.50015 1.50015 0 0 0 25.621094 5.9863281 z M 24.943359 10.328125 L 26.357422 11.742188 L 21.408203 16.691406 L 19.994141 15.277344 L 24.943359 10.328125 z M 28.478516 13.863281 L 34.136719 19.521484 L 29.1875 24.470703 L 27.480469 22.763672 A 1.50015 1.50015 0 0 0 27.148438 22.431641 L 23.529297 18.8125 L 28.478516 13.863281 z M 36.257812 21.642578 L 37.671875 23.056641 L 32.722656 28.005859 L 31.308594 26.591797 L 36.257812 21.642578 z M 23.662109 24.333984 C 18.443851 30.455379 13.353346 36.341966 11.046875 38.648438 C 10.565806 39.129506 9.8326316 39.129506 9.3515625 38.648438 C 8.8704934 38.167367 8.8704934 37.436147 9.3515625 36.955078 C 11.664177 34.642463 17.521624 29.568056 23.662109 24.333984 z M 24.5 39 A 1.50015 1.50015 0 1 0 24.5 42 L 40.5 42 A 1.50015 1.50015 0 1 0 40.5 39 L 24.5 39 z"/></svg>