<svg width="38" height="38" viewBox="0 0 38 38" fill="none" xmlns="http://www.w3.org/2000/svg">
<path d="M20.4279 0.000605848C20.0221 0.0124322 19.6369 0.181713 19.3537 0.472611L18.7902 1.03413C18.6564 1.13162 18.539 1.24974 18.4423 1.38407L11.4253 8.39904C11.2916 8.49591 11.1742 8.61333 11.0774 8.74694L10.5138 9.3105C10.2477 9.57045 10.0831 9.9168 10.0495 10.2873C10.016 10.6577 10.1157 11.028 10.3307 11.3315C10.5457 11.6351 10.862 11.852 11.2226 11.9432C11.5832 12.0344 11.9646 11.994 12.2981 11.8292L14.7456 14.2767C14.8479 14.4203 14.9738 14.5455 15.1179 14.647L16.8086 16.3397C10.1634 21.9936 3.96746 27.3538 1.27104 30.0502C-0.42368 31.745 -0.42368 34.5404 1.27104 36.2351C2.96576 37.9299 5.76122 37.9299 7.45594 36.2351C10.1454 33.5457 15.5242 27.3157 21.1604 20.6915L22.849 22.3802C22.9512 22.5244 23.077 22.6503 23.2213 22.7525L25.6749 25.2061C25.5101 25.5396 25.4697 25.9209 25.561 26.2815C25.6522 26.6422 25.8691 26.9584 26.1726 27.1734C26.4761 27.3885 26.8464 27.4882 27.2169 27.4546C27.5873 27.421 27.9337 27.2564 28.1936 26.9904L28.7633 26.4207C28.8925 26.3261 29.0064 26.2122 29.101 26.083L36.116 19.066C36.254 18.9669 36.375 18.8459 36.4741 18.7079L37.0315 18.1504C37.2967 17.8904 37.4606 17.5445 37.4938 17.1747C37.5271 16.8048 37.4276 16.4352 37.2131 16.1321C36.9986 15.8289 36.6831 15.6121 36.3233 15.5204C35.9634 15.4287 35.5827 15.4682 35.2493 15.6317L32.7916 13.174C32.693 13.0369 32.5727 12.9166 32.4356 12.818L24.6902 5.07263C24.5911 4.9346 24.4702 4.81365 24.3322 4.71455L21.8724 2.25484C21.9918 2.01329 22.0466 1.74499 22.0317 1.47598C22.0168 1.20698 21.9325 0.946404 21.7872 0.71956C21.6418 0.492716 21.4403 0.307308 21.2021 0.181336C20.9639 0.0553628 20.6973 -0.00689504 20.4279 0.000605848V0.000605848ZM19.722 4.52331L21.1949 5.99629L16.0395 11.1517L14.5665 9.67875L19.722 4.52331ZM23.4044 8.20577L29.2984 14.0997L24.1429 19.2552L22.3648 17.477C22.2684 17.3443 22.1517 17.2276 22.0189 17.1311L18.249 13.3612L23.4044 8.20577ZM31.5079 16.3092L32.9808 17.7822L27.8254 22.9376L26.3524 21.4646L31.5079 16.3092ZM18.3873 19.1127C12.9516 25.4892 7.64904 31.6211 5.24646 34.0236C4.74535 34.5247 3.98163 34.5247 3.48051 34.0236C2.9794 33.5225 2.9794 32.7608 3.48051 32.2597C5.88949 29.8507 11.991 24.5649 18.3873 19.1127ZM19.2601 34.3898C19.0531 34.3869 18.8475 34.4252 18.6554 34.5024C18.4632 34.5796 18.2884 34.6942 18.1409 34.8396C17.9935 34.985 17.8764 35.1582 17.7965 35.3492C17.7165 35.5403 17.6754 35.7453 17.6754 35.9523C17.6754 36.1594 17.7165 36.3644 17.7965 36.5554C17.8764 36.7465 17.9935 36.9197 18.1409 37.0651C18.2884 37.2105 18.4632 37.3251 18.6554 37.4023C18.8475 37.4795 19.0531 37.5178 19.2601 37.5148H35.9268C36.1339 37.5178 36.3394 37.4795 36.5316 37.4023C36.7237 37.3251 36.8986 37.2105 37.046 37.0651C37.1935 36.9197 37.3106 36.7465 37.3905 36.5554C37.4704 36.3644 37.5116 36.1594 37.5116 35.9523C37.5116 35.7453 37.4704 35.5403 37.3905 35.3492C37.3106 35.1582 37.1935 34.985 37.046 34.8396C36.8986 34.6942 36.7237 34.5796 36.5316 34.5024C36.3394 34.4252 36.1339 34.3869 35.9268 34.3898H19.2601Z" fill="#2980BA"/>
</svg>
