<svg width="50" height="50" viewBox="0 0 50 50" fill="none" xmlns="http://www.w3.org/2000/svg">
<path d="M25 1.04166C19.2658 1.04166 14.5833 5.72413 14.5833 11.4583V19.2708H14.6281C10.7989 22.3279 8.33334 27.0251 8.33334 32.2917C8.33334 41.4779 15.8138 48.9583 25 48.9583C34.1863 48.9583 41.6667 41.4779 41.6667 32.2917C41.6667 27.0251 39.2012 22.3279 35.3719 19.2708H35.4167V11.4583C35.4167 5.72413 30.7342 1.04166 25 1.04166ZM25 4.16666C29.045 4.16666 32.2917 7.41335 32.2917 11.4583V17.3299C30.0853 16.2496 27.6166 15.625 25 15.625C22.3834 15.625 19.9147 16.2496 17.7083 17.3299V11.4583C17.7083 7.41335 20.955 4.16666 25 4.16666ZM25 18.75C32.4974 18.75 38.5417 24.7943 38.5417 32.2917C38.5417 39.789 32.4974 45.8333 25 45.8333C17.5026 45.8333 11.4583 39.789 11.4583 32.2917C11.4583 24.7943 17.5026 18.75 25 18.75ZM25 25C23.8062 25.0035 22.6498 25.417 21.7244 26.1713C20.7991 26.9256 20.1609 27.9749 19.9169 29.1435C19.6728 30.3121 19.8376 31.5291 20.3837 32.5908C20.9298 33.6524 21.824 34.4942 22.9167 34.9752V38.5417C22.9167 39.6927 23.849 40.625 25 40.625C26.1511 40.625 27.0833 39.6927 27.0833 38.5417V34.9792C28.1784 34.4997 29.0752 33.658 29.6231 32.5954C30.1711 31.5329 30.3368 30.3142 30.0925 29.1439C29.8482 27.9737 29.2087 26.9231 28.2814 26.1685C27.3541 25.4139 26.1955 25.0014 25 25Z" fill="#F7F7F7"/>
</svg>
