<svg width="50" height="50" viewBox="0 0 50 50" fill="none" xmlns="http://www.w3.org/2000/svg">
<path d="M12.1094 12.7343C11.6797 12.7343 11.2892 12.9685 11.0939 13.3591C10.8986 13.7497 10.8984 14.2191 11.1328 14.5706C12.1875 16.1331 13.4375 17.578 14.8438 18.7889V26.5625C14.8438 32.1485 19.4141 36.7188 25 36.7188C30.5859 36.7188 35.1563 32.1485 35.1563 26.5625V22.2657V22.1878C34.8828 16.9144 30.5467 12.7343 25.2342 12.7343H12.1094ZM17.1875 20.6253C20.7813 23.0472 24.9997 24.3363 29.3747 24.3363C30.5075 24.3363 31.6797 24.2577 32.8125 24.0624V26.5625C32.8125 30.8594 29.2969 34.375 25 34.375C20.7031 34.375 17.1875 30.8594 17.1875 26.5625V20.6253ZM12.2276 21.6332C12.1494 21.64 12.07 21.6553 11.9919 21.6797C8.47627 22.6172 6.0547 25.7816 6.0547 29.4144C6.0547 33.9066 9.64844 37.4611 14.0625 37.4611C15.0781 37.4611 16.0936 37.2658 17.0311 36.8752C17.617 36.6408 17.93 35.9375 17.6956 35.3516C17.4612 34.7657 16.758 34.4535 16.172 34.6878C15.508 34.9613 14.8047 35.0785 14.0625 35.0785C10.9375 35.0785 8.39845 32.5394 8.39845 29.4144C8.39845 26.8363 10.1175 24.6097 12.6175 23.9456C13.2425 23.7894 13.633 23.1249 13.4377 22.4999C13.3009 21.953 12.7756 21.5856 12.2276 21.6332ZM37.5794 21.6851C37.0389 21.6637 36.5427 22.0316 36.406 22.5785C36.2497 23.2035 36.6408 23.8283 37.2658 23.9846C39.8439 24.5705 41.6016 26.836 41.6016 29.4922C41.6016 32.5782 39.0625 35.1174 35.9375 35.1174C35.1953 35.1174 34.492 35.0002 33.828 34.7267C33.242 34.4924 32.5388 34.7655 32.3044 35.3905C32.07 35.9764 32.3439 36.6797 32.9689 36.9141C33.9064 37.3047 34.9219 37.5 35.9375 37.5C40.3516 37.5 43.9453 33.9063 43.9453 29.4922C43.9453 25.7813 41.4066 22.578 37.8128 21.7186C37.7347 21.6991 37.6566 21.6881 37.5794 21.6851ZM25 38.8283C18.5938 38.8283 12.6566 42.3047 9.4925 47.8516C9.18 48.3985 9.37516 49.1405 9.92204 49.453C10.1173 49.5702 10.3127 49.6094 10.508 49.6094C10.8986 49.6094 11.3281 49.4141 11.5234 49.0235C14.2578 44.1797 19.4141 41.1721 25 41.1721C30.5469 41.1721 35.7031 44.1797 38.4766 49.0235C38.7891 49.5703 39.5311 49.7655 40.078 49.453C40.6249 49.1405 40.82 48.4375 40.5075 47.8516C37.3435 42.3047 31.4063 38.8283 25 38.8283ZM10.0792 40.4335C10.0009 40.4377 9.92158 40.4491 9.84345 40.4686C5.85908 41.6014 2.42188 44.2969 0.390633 47.8516C0.0781328 48.3985 0.273293 49.1405 0.820168 49.453C1.01548 49.5702 1.21079 49.6094 1.40611 49.6094C1.79673 49.6094 2.22627 49.4141 2.42158 49.0235C4.14033 45.9766 7.07063 43.6721 10.4691 42.7346C11.0941 42.5783 11.4455 41.9138 11.2892 41.2888C11.1525 40.7419 10.6271 40.4047 10.0792 40.4335ZM39.9208 40.4335C39.3729 40.4047 38.8475 40.7419 38.7108 41.2888C38.5545 41.9138 38.906 42.5783 39.531 42.7346C42.8903 43.6721 45.8206 45.9766 47.5784 49.0235C47.8128 49.4141 48.2033 49.6094 48.5939 49.6094C48.7892 49.6094 48.9845 49.5702 49.1798 49.453C49.7267 49.1405 49.9219 48.4375 49.6094 47.8516C47.5781 44.2578 44.1409 41.5624 40.1566 40.4686C40.0784 40.4491 39.9991 40.4377 39.9208 40.4335Z" fill="#2980BA"/>
</svg>
