<?xml version="1.0"?><svg fill="#000000" xmlns="http://www.w3.org/2000/svg"  viewBox="0 0 128 128" width="50px" height="50px">    <path d="M 31 32.599609 C 29.9 32.599609 28.900391 33.199219 28.400391 34.199219 C 27.900391 35.199219 27.9 36.400781 28.5 37.300781 C 31.2 41.300781 34.4 44.999609 38 48.099609 L 38 68 C 38 82.3 49.7 94 64 94 C 78.3 94 90 82.3 90 68 L 90 57 L 90 56.800781 C 89.3 43.300781 78.199609 32.599609 64.599609 32.599609 L 31 32.599609 z M 44 52.800781 C 53.2 59.000781 63.999219 62.300781 75.199219 62.300781 C 78.099219 62.300781 81.1 62.099609 84 61.599609 L 84 68 C 84 79 75 88 64 88 C 53 88 44 79 44 68 L 44 52.800781 z M 31.302734 55.380859 C 31.102344 55.398242 30.899219 55.4375 30.699219 55.5 C 21.699219 57.9 15.5 66.000781 15.5 75.300781 C 15.5 86.800781 24.7 95.900391 36 95.900391 C 38.6 95.900391 41.199609 95.400391 43.599609 94.400391 C 45.099609 93.800391 45.900781 92 45.300781 90.5 C 44.700781 89 42.900391 88.200781 41.400391 88.800781 C 39.700391 89.500781 37.9 89.800781 36 89.800781 C 28 89.800781 21.5 83.300781 21.5 75.300781 C 21.5 68.700781 25.900781 63.000781 32.300781 61.300781 C 33.900781 60.900781 34.900391 59.199609 34.400391 57.599609 C 34.050391 56.199609 32.705469 55.25918 31.302734 55.380859 z M 96.203125 55.513672 C 94.819531 55.458984 93.549219 56.400781 93.199219 57.800781 C 92.799219 59.400781 93.800391 61.000391 95.400391 61.400391 C 102.00039 62.900391 106.5 68.7 106.5 75.5 C 106.5 83.4 100 89.900391 92 89.900391 C 90.1 89.900391 88.299609 89.600391 86.599609 88.900391 C 85.099609 88.300391 83.299219 88.999609 82.699219 90.599609 C 82.099219 92.099609 82.800391 93.9 84.400391 94.5 C 86.800391 95.5 89.4 96 92 96 C 103.3 96 112.5 86.8 112.5 75.5 C 112.5 66 106.00078 57.799609 96.800781 55.599609 C 96.600781 55.549609 96.400781 55.521484 96.203125 55.513672 z M 64 99.400391 C 47.6 99.400391 32.400781 108.3 24.300781 122.5 C 23.500781 123.9 24.000391 125.79961 25.400391 126.59961 C 25.900391 126.89961 26.400391 127 26.900391 127 C 27.900391 127 29 126.5 29.5 125.5 C 36.5 113.1 49.7 105.40039 64 105.40039 C 78.2 105.40039 91.4 113.1 98.5 125.5 C 99.3 126.9 101.19961 127.39961 102.59961 126.59961 C 103.99961 125.79961 104.49922 124 103.69922 122.5 C 95.599219 108.3 80.4 99.400391 64 99.400391 z M 25.802734 103.50977 C 25.602344 103.52031 25.399219 103.54961 25.199219 103.59961 C 14.999219 106.49961 6.2 113.4 1 122.5 C 0.2 123.9 0.69960937 125.79961 2.0996094 126.59961 C 2.5996094 126.89961 3.0996094 127 3.5996094 127 C 4.5996094 127 5.6992187 126.5 6.1992188 125.5 C 10.599219 117.7 18.100781 111.80039 26.800781 109.40039 C 28.400781 109.00039 29.300391 107.29922 28.900391 105.69922 C 28.550391 104.29922 27.205469 103.43594 25.802734 103.50977 z M 102.19727 103.50977 C 100.79453 103.43594 99.449609 104.29922 99.099609 105.69922 C 98.699609 107.29922 99.599219 109.00039 101.19922 109.40039 C 109.79922 111.80039 117.30078 117.7 121.80078 125.5 C 122.40078 126.5 123.40039 127 124.40039 127 C 124.90039 127 125.40039 126.89961 125.90039 126.59961 C 127.30039 125.79961 127.8 124 127 122.5 C 121.8 113.3 113.00078 106.39961 102.80078 103.59961 C 102.60078 103.54961 102.39766 103.52031 102.19727 103.50977 z"/></svg>