<svg fill="#000000" xmlns="http://www.w3.org/2000/svg"  viewBox="0 0 48 48" width="50px" height="50px"><path d="M 13 7 C 11.125 7 9.5288151 7.7571335 8.5039062 8.9101562 C 7.4789976 10.063179 7 11.541667 7 13 C 7 14.458333 7.4789975 15.936821 8.5039062 17.089844 C 9.5288151 18.242867 11.125 19 13 19 C 14.875 19 16.471185 18.242867 17.496094 17.089844 C 18.521003 15.936821 19 14.458333 19 13 C 19 11.541667 18.521003 10.063179 17.496094 8.9101562 C 16.471185 7.7571335 14.875 7 13 7 z M 35 7 C 33.125 7 31.528815 7.7571335 30.503906 8.9101562 C 29.478997 10.063179 29 11.541667 29 13 C 29 14.458333 29.478997 15.936821 30.503906 17.089844 C 31.528815 18.242867 33.125 19 35 19 C 36.875 19 38.471185 18.242867 39.496094 17.089844 C 40.521003 15.936821 41 14.458333 41 13 C 41 11.541667 40.521003 10.063179 39.496094 8.9101562 C 38.471185 7.7571335 36.875 7 35 7 z M 13 10 C 14.124999 10 14.778816 10.367867 15.253906 10.902344 C 15.728997 11.436821 16 12.208333 16 13 C 16 13.791667 15.728997 14.563179 15.253906 15.097656 C 14.778816 15.632133 14.124999 16 13 16 C 11.875001 16 11.221184 15.632133 10.746094 15.097656 C 10.271003 14.563179 10 13.791667 10 13 C 10 12.208333 10.271003 11.436821 10.746094 10.902344 C 11.221184 10.367867 11.875001 10 13 10 z M 35 10 C 36.124999 10 36.778816 10.367867 37.253906 10.902344 C 37.728997 11.436821 38 12.208333 38 13 C 38 13.791667 37.728997 14.563179 37.253906 15.097656 C 36.778816 15.632133 36.124999 16 35 16 C 33.875001 16 33.221184 15.632133 32.746094 15.097656 C 32.271003 14.563179 32 13.791667 32 13 C 32 12.208333 32.271003 11.436821 32.746094 10.902344 C 33.221184 10.367867 33.875001 10 35 10 z M 24 17 A 6 6 0 0 0 24 29 A 6 6 0 0 0 24 17 z M 7.5 21 C 5.57 21 4 22.57 4 24.5 L 4 27 C 4 30.36 7.95 33 13 33 L 13.210938 33 C 13.660937 31.39 14.839375 30.079688 16.359375 29.429688 C 15.409375 29.779688 14.26 30 13 30 C 9.57 30 7 28.42 7 27 L 7 24.5 C 7 24.22 7.22 24 7.5 24 L 16.060547 24 C 16.020547 23.67 16 23.34 16 23 C 16 22.31 16.09 21.64 16.25 21 L 7.5 21 z M 31.75 21 C 31.91 21.64 32 22.31 32 23 C 32 23.34 31.979453 23.67 31.939453 24 L 40.5 24 C 40.78 24 41 24.22 41 24.5 L 41 27 C 41 28.42 38.43 30 35 30 C 33.74 30 32.590625 29.779688 31.640625 29.429688 C 33.160625 30.079687 34.339063 31.39 34.789062 33 L 35 33 C 40.05 33 44 30.36 44 27 L 44 24.5 C 44 22.57 42.43 21 40.5 21 L 31.75 21 z M 18.5 31 C 16.57 31 15 32.57 15 34.5 L 15 37 C 15 40.364 18.953 43 24 43 C 29.047 43 33 40.364 33 37 L 33 34.5 C 33 32.57 31.43 31 29.5 31 L 18.5 31 z"/></svg>