<svg fill="#000000" xmlns="http://www.w3.org/2000/svg"  viewBox="0 0 48 48" width="50px" height="50px"><path d="M 16.5 8 A 1.50015 1.50015 0 0 0 15 9.5 L 15 16 L 4.5 16 A 1.50015 1.50015 0 0 0 3 17.5 L 3 23.5 L 3 37.5 L 3 39.5 A 1.50015 1.50015 0 0 0 4.5 41 L 43.5 41 A 1.50015 1.50015 0 0 0 45 39.5 L 45 23.5 A 1.50015 1.50015 0 0 0 43.5 22 L 33 22 L 33 9.5 A 1.50015 1.50015 0 0 0 31.5 8 L 16.5 8 z M 18 11 L 30 11 L 30 23.5 A 1.50015 1.50015 0 0 0 31.5 25 L 42 25 L 42 38 L 6 38 L 6 37.5 L 6 23.5 L 6 19 L 16.5 19 A 1.50015 1.50015 0 0 0 18 17.5 L 18 11 z M 24.982422 13.998047 C 24.907047 13.999391 24.832062 14.010297 24.757812 14.029297 L 22.757812 14.529297 C 22.221812 14.663297 21.895297 15.206188 22.029297 15.742188 C 22.163297 16.278188 22.708188 16.604703 23.242188 16.470703 L 24 16.28125 L 24 21 C 24 21.552 24.448 22 25 22 C 25.552 22 26 21.552 26 21 L 26 15 C 26 14.692 25.857234 14.400937 25.615234 14.210938 C 25.432984 14.068438 25.208547 13.994016 24.982422 13.998047 z M 13 22 C 11.356 22 10.413234 22.965156 10.115234 23.535156 C 9.8652344 24.013156 10.048578 24.587516 10.517578 24.853516 C 10.985578 25.116516 11.588094 24.949234 11.871094 24.490234 C 11.901094 24.440234 12.195 24 13 24 C 13.551 24 14 24.449 14 25 C 14 25.485 13.056828 26.011547 12.298828 26.435547 C 11.221828 27.036547 10 27.717 10 29 C 10 29.552 10.448 30 11 30 L 15 30 C 15.552 30 16 29.552 16 29 C 16 28.448 15.552 28 15 28 L 13.595703 28 C 14.739703 27.35 16 26.515 16 25 C 16 23.346 14.654 22 13 22 z M 35.875 28 C 34.315 28 33.372531 28.956453 33.269531 29.064453 C 32.896531 29.463453 32.918547 30.080938 33.310547 30.460938 C 33.702547 30.840938 34.33175 30.830313 34.71875 30.445312 C 34.73675 30.427312 35.173 30 35.875 30 C 36.202 30 36.75 30.065 36.75 30.5 C 36.75 30.699 36.75 31 36 31 C 35.448 31 35 31.448 35 32 C 35 32.552 35.448 33 36 33 C 36.167 33 37 33.024 37 33.5 C 37 33.976 36.167 34 36 34 C 35.115 34 34.583922 33.685156 34.544922 33.660156 C 34.085922 33.363156 33.471969 33.489312 33.167969 33.945312 C 32.861969 34.405313 32.986312 35.026031 33.445312 35.332031 C 33.548313 35.400031 34.491 36 36 36 C 37.794 36 39 34.995 39 33.5 C 39 32.85 38.772188 32.291141 38.367188 31.869141 C 38.614187 31.487141 38.75 31.024 38.75 30.5 C 38.75 29.028 37.568 28 35.875 28 z"/></svg>