<svg fill="#000000" xmlns="http://www.w3.org/2000/svg"  viewBox="0 0 48 48" width="50px" height="50px"><path d="M 12.5 4 C 10.02 4 8 6.02 8 8.5 L 8 39.5 C 8 41.98 10.02 44 12.5 44 L 25.630859 44 C 24.770859 43.12 24.050703 42.11 23.470703 41 L 12.5 41 C 11.67 41 11 40.33 11 39.5 L 11 8.5 C 11 7.67 11.67 7 12.5 7 L 24 7 L 24 15.5 C 24 17.98 26.02 20 28.5 20 L 37 20 L 37 22.150391 C 38.04 22.320391 39.05 22.6 40 23 L 40 18.5 C 40 18.085 39.831797 17.710703 39.560547 17.439453 L 26.560547 4.4394531 C 26.289297 4.1682031 25.915 4 25.5 4 L 12.5 4 z M 27 9.1210938 L 34.878906 17 L 28.5 17 C 27.67 17 27 16.33 27 15.5 L 27 9.1210938 z M 35 24 C 28.925 24 24 28.925 24 35 C 24 41.075 28.925 46 35 46 C 41.075 46 46 41.075 46 35 C 46 28.925 41.075 24 35 24 z M 16.5 25 A 1.5 1.5 0 0 0 16.5 28 A 1.5 1.5 0 0 0 16.5 25 z M 21.5 25 C 20.67 25 20 25.67 20 26.5 C 20 27.33 20.67 28 21.5 28 L 24.050781 28 C 24.770781 26.87 25.669219 25.85 26.699219 25 L 21.5 25 z M 35 27 C 35.552 27 36 27.448 36 28 L 36 34 L 42 34 C 42.552 34 43 34.448 43 35 C 43 35.552 42.552 36 42 36 L 36 36 L 36 42 C 36 42.552 35.552 43 35 43 C 34.448 43 34 42.552 34 42 L 34 36 L 28 36 C 27.448 36 27 35.552 27 35 C 27 34.448 27.448 34 28 34 L 34 34 L 34 28 C 34 27.448 34.448 27 35 27 z M 16.5 32 A 1.5 1.5 0 0 0 16.5 35 A 1.5 1.5 0 0 0 16.5 32 z M 21.5 32 C 20.67 32 20 32.67 20 33.5 C 20 34.33 20.67 35 21.5 35 L 22 35 C 22 33.97 22.119609 32.96 22.349609 32 L 21.5 32 z"/></svg>