<svg width="50" height="50" viewBox="0 0 50 50" fill="none" xmlns="http://www.w3.org/2000/svg">
<path d="M21.3542 6.25C13.037 6.25 6.25 13.037 6.25 21.3542C6.25 29.6713 13.037 36.4583 21.3542 36.4583C24.7637 36.4583 27.9051 35.3052 30.4382 33.3862L40.1937 43.1396C40.3857 43.3396 40.6156 43.4992 40.87 43.6092C41.1245 43.7192 41.3983 43.7773 41.6754 43.7801C41.9526 43.7829 42.2276 43.7304 42.4842 43.6256C42.7408 43.5209 42.9739 43.3659 43.1699 43.1699C43.3659 42.9739 43.5209 42.7408 43.6256 42.4842C43.7304 42.2276 43.7829 41.9526 43.7801 41.6754C43.7773 41.3983 43.7192 41.1245 43.6092 40.87C43.4992 40.6156 43.3396 40.3857 43.1396 40.1937L33.3862 30.4382C35.3052 27.9051 36.4583 24.7637 36.4583 21.3542C36.4583 13.037 29.6713 6.25 21.3542 6.25ZM21.3542 10.4167C27.4195 10.4167 32.2917 15.2889 32.2917 21.3542C32.2917 24.2664 31.1605 26.8965 29.3213 28.8513C29.1423 28.9809 28.985 29.1382 28.8554 29.3172C26.9001 31.1588 24.2684 32.2917 21.3542 32.2917C15.2889 32.2917 10.4167 27.4195 10.4167 21.3542C10.4167 15.2889 15.2889 10.4167 21.3542 10.4167Z" fill="#717171"/>
</svg>
